<svg width="20" height="21" viewBox="0 0 20 21" fill="none" xmlns="http://www.w3.org/2000/svg">
<path d="M10.2545 0.906882H10.6631C9.32732 2.16691 8.4687 3.86227 8.23651 5.69828C8.00432 7.53429 8.41325 9.39485 9.3922 10.9565C10.3712 12.5182 11.8583 13.6823 13.595 14.2464C15.3317 14.8105 17.2083 14.739 18.8984 14.0443C18.2483 15.6324 17.1856 17.0115 15.8239 18.0346C14.4622 19.0577 12.8524 19.6863 11.1663 19.8535C9.48021 20.0206 7.78104 19.72 6.25005 18.9837C4.71906 18.2474 3.41368 17.103 2.47315 15.6726C1.53261 14.2422 0.992207 12.5795 0.909578 10.8618C0.826948 9.14408 1.20519 7.4358 2.00396 5.9192C2.80274 4.4026 3.99207 3.13455 5.44511 2.25032C6.89814 1.36609 8.56037 0.898852 10.2545 0.898438V0.906882Z" stroke="black" stroke-width="1.8" stroke-linecap="round" stroke-linejoin="round"/>
</svg>
