<svg width="25" height="25" viewBox="0 0 25 25" fill="none" xmlns="http://www.w3.org/2000/svg">
<path d="M12.5 0C19.4036 0 25 5.59644 25 12.5C25 15.9078 23.6343 18.9951 21.4229 21.25C21.4246 21.3092 21.4287 21.369 21.4287 21.4287H21.2441C18.9898 23.6367 15.9048 25 12.5 25C9.09517 25 6.0102 23.6367 3.75586 21.4287H3.57129C3.57129 21.369 3.57438 21.3092 3.57617 21.25C1.36501 18.9952 0 15.9076 0 12.5C5.15422e-07 5.59644 5.59644 5.15406e-07 12.5 0ZM12.5 16.667C10.6031 16.667 8.92876 17.2603 7.75391 18.1641C6.93616 18.7933 6.38307 19.5494 6.12305 20.3555C7.86355 21.7701 10.0823 22.6191 12.5 22.6191C14.9174 22.6191 17.1356 21.7698 18.876 20.3555C18.6158 19.5495 18.0637 18.7932 17.2461 18.1641C16.0712 17.2603 14.3969 16.667 12.5 16.667ZM12.5 2.38086C6.91141 2.38086 2.38086 6.91141 2.38086 12.5C2.38086 14.7451 3.11334 16.8186 4.35059 18.4971C4.82874 17.6437 5.50224 16.8922 6.30273 16.2764C7.25055 15.5473 8.3924 14.9927 9.65039 14.6562C8.2167 13.7541 7.24047 12.1909 7.14941 10.3945L7.14258 10.1191C7.14268 7.16065 9.54152 4.76187 12.5 4.76172L12.7754 4.76855C15.6059 4.91202 17.8563 7.25301 17.8564 10.1191L17.8496 10.3945C17.7585 12.1916 16.7811 13.7533 15.3467 14.6553C16.606 14.9916 17.7486 15.5466 18.6973 16.2764C19.4977 16.8921 20.1703 17.6439 20.6484 18.4971C21.8859 16.8185 22.6191 14.7454 22.6191 12.5C22.6191 6.9114 18.0886 2.38086 12.5 2.38086ZM12.5 7.14258C10.8565 7.14273 9.52354 8.47561 9.52344 10.1191C9.52359 11.7626 10.8565 13.0946 12.5 13.0947C14.1435 13.0946 15.4754 11.7626 15.4756 10.1191C15.4755 8.47561 14.1435 7.14273 12.5 7.14258Z" fill="white"/>
</svg>
