<svg width="29" height="29" viewBox="0 0 29 29" fill="none" xmlns="http://www.w3.org/2000/svg">
<path d="M14.25 1.25V4.13825M14.25 24.3618V27.25M4.13889 14.2471H1.25M27.25 14.2471H24.3611M24.3611 4.13825L21.4722 7.02649M4.13889 4.13825L7.02778 7.02649M7.02778 21.4677L4.13889 24.356M24.3611 24.356L21.4722 21.4677M20.0278 14.2471C20.0278 15.7791 19.4191 17.2484 18.3355 18.3317C17.252 19.415 15.7824 20.0236 14.25 20.0236C12.7176 20.0236 11.248 19.415 10.1645 18.3317C9.08095 17.2484 8.47222 15.7791 8.47222 14.2471C8.47222 12.7151 9.08095 11.2458 10.1645 10.1625C11.248 9.07921 12.7176 8.47062 14.25 8.47062C15.7824 8.47062 17.252 9.07921 18.3355 10.1625C19.4191 11.2458 20.0278 12.7151 20.0278 14.2471Z" stroke="white" stroke-width="2.5" stroke-linecap="round" stroke-linejoin="round"/>
</svg>
